<?xml version="1.0" encoding="UTF-8"?>
<svg xmlns="http://www.w3.org/2000/svg" width="46" height="46" viewBox="0 0 46 46">
  <defs/>
  <g fill="none" fill-rule="evenodd">
    <path d="M23 9c3.9 0 6.6 1.7 8.1 3.1l6-5.8C33.6 3.8 28.7 2 23 2 13.8 2 5.9 7.8 3 16.3l7.4 5.7C11.8 15.1 17.8 9 23 9z" fill="#EA4335"/>
    <path d="M37.1 20.3c.3 1.5.4 3.1.4 4.7 0 1.6-.1 3.1-.4 4.6-1.7 6.7-8.1 11.4-15.1 11.4-6.6 0-12.2-3.9-14.7-9.4l-7.4 5.7C6 41.8 14 47 23 47c9.7 0 17.9-6 20.8-14.4 1.6-4.4 1.6-9.4 0-13.3l-6.7 1z" fill="#34A853"/>
    <path d="M8.3 27.7C6.9 24.9 6.4 21.8 6.4 18.6c0-3 .6-5.9 1.9-8.5L1 3.9C-.4 7.4 0 11.5 1.9 15.2c4.2 9 12.8 15.4 22.1 16.6l-8.4-7.1z" fill="#FBBC05"/>
    <path d="M23 9c5.2 0 11.2 6.1 12 13.3l7.4-5.7C40.1 12.9 33.6 9 23 9z" fill="#4285F4"/>
  </g>
</svg>
